<svg xmlns="http://www.w3.org/2000/svg" width="512" height="512" viewBox="0 0 512 512" version="1.1">
	<path d="M 235.354 46.091 C 199.237 49.314, 159.089 64.299, 128.773 85.870 C 88.542 114.497, 59.295 158.605, 50.112 204.500 C 44.477 232.666, 46.694 247.541, 58.904 263.471 L 64 270.120 64 277.960 C 64 293.175, 70.213 320.951, 77.633 338.904 C 82.818 351.450, 91.261 367.586, 97.640 377.143 C 121.720 413.220, 157.514 440.854, 198.388 454.926 C 220.573 462.563, 248.865 466.843, 264.903 464.987 C 332.048 457.217, 384.585 424.063, 418.594 368 C 434.492 341.791, 444.599 310.106, 446.953 279.092 C 447.932 266.197, 448.715 263.940, 455.189 255.366 C 464.192 243.441, 465.836 228.297, 460.589 205.617 C 448.412 152.981, 417.996 109.265, 373 79.730 C 333.666 53.910, 283.932 41.756, 235.354 46.091 M 237.500 61.992 C 224.103 63.126, 204.350 67.224, 191.412 71.553 C 159.333 82.285, 135.691 96.960, 111.964 120.868 C 88.949 144.057, 74.350 170.142, 66.150 202.724 C 62.730 216.313, 60.574 233.213, 61.578 238.562 C 61.979 240.699, 64.891 245.674, 68.760 250.829 C 78.302 263.543, 79.149 265.917, 80.051 282.468 C 81.268 304.803, 87.806 326.916, 100.608 352 C 124.121 398.068, 168.736 432.914, 219.844 445.126 C 236.685 449.150, 252.638 450.901, 263 449.864 C 299.193 446.240, 336.423 431.309, 362.600 409.919 C 402.097 377.644, 427.172 329.932, 431.992 277.881 C 433.267 264.108, 435.813 255.946, 441.337 247.916 C 443.627 244.588, 446.372 240.472, 447.438 238.769 C 455.257 226.276, 437.092 170.577, 415.267 140.124 C 386.004 99.292, 339.804 71.839, 286.500 63.609 C 273.880 61.660, 250.522 60.889, 237.500 61.992 M 166.500 102.102 C 126.637 111.857, 90.956 154.231, 82.380 202 C 80.033 215.074, 80.021 238.988, 82.355 254 C 84.682 268.975, 90.897 293.220, 95.392 304.858 C 102.395 322.990, 117.853 349.405, 128.817 361.972 L 132.719 366.445 134.294 363.398 C 137.086 358, 139.267 343.383, 138.525 335.047 C 137.140 319.488, 133.249 307.884, 125.287 295.568 C 120.021 287.423, 110.733 278, 107.972 278 C 106.100 278, 106.115 278.216, 108.409 284.250 C 109.716 287.688, 113.293 296.139, 116.357 303.030 C 123.908 320.012, 126.516 330.333, 122.391 326.909 C 119.866 324.814, 107.245 297.830, 104.073 287.745 C 85.104 227.441, 95.473 172.871, 132.478 138.248 C 147.233 124.443, 163.421 116.988, 179.354 116.660 C 187.889 116.484, 188.294 116.370, 190.599 113.489 C 193.773 109.522, 193.622 106.468, 190.077 102.923 C 187.440 100.286, 186.534 100.007, 180.827 100.072 C 177.347 100.112, 170.900 101.026, 166.500 102.102 M 323 100.709 C 317.854 102.602, 316.387 108.680, 319.975 113.242 C 321.754 115.503, 322.824 115.799, 330.725 116.211 C 363.087 117.902, 396.856 149.012, 409.330 188.625 C 414.449 204.883, 415.506 212.243, 415.414 231 C 415.342 245.715, 414.912 250.535, 412.714 261.284 C 409.446 277.266, 406.229 287.872, 400.457 301.690 C 395.937 312.509, 387.308 328, 385.801 328 C 383.308 328, 387.697 314.741, 396.111 296.851 C 399.900 288.794, 403 281.020, 403 279.575 C 403 277.025, 402.920 276.990, 400.219 278.387 C 398.689 279.178, 395.408 282.002, 392.927 284.663 C 375.326 303.541, 368.126 329.386, 374.004 352.590 C 376.221 361.344, 377.915 366.007, 378.871 365.987 C 379.217 365.980, 380.400 364.700, 381.500 363.143 C 405.368 329.364, 415.821 307.866, 423.385 277 C 428.463 256.280, 429.994 245.368, 429.978 230 C 429.945 199.075, 422.824 173.945, 407.623 151.112 C 391.348 126.665, 366.793 107.828, 343.590 101.990 C 336.106 100.107, 326.297 99.497, 323 100.709 M 202 116.706 C 197.026 118.524, 194.106 124.518, 195.897 129.230 C 198.634 136.428, 206.787 138.366, 212.077 133.077 C 219.377 125.777, 211.627 113.187, 202 116.706 M 299.923 118.923 C 293.689 125.157, 297.879 136, 306.522 136 C 309.344 136, 310.871 135.279, 313.099 132.894 C 321.701 123.686, 308.820 110.027, 299.923 118.923 M 166.236 170.060 C 149.393 173.381, 135.330 188.089, 133.030 204.790 C 129.763 228.521, 147.464 251.303, 170.307 252.769 C 180.231 253.406, 187.661 251.665, 194.850 247.018 C 206.436 239.530, 212.892 228.053, 213.757 213.409 C 214.558 199.828, 210.505 189.535, 200.728 180.322 C 190.867 171.031, 179.086 167.526, 166.236 170.060 M 329.045 170.032 C 317.398 172.473, 306.144 181.349, 300.500 192.548 C 297.664 198.175, 297.500 199.156, 297.500 210.500 C 297.500 221.529, 297.725 222.980, 300.277 228.430 C 311.262 251.887, 337.438 260.046, 358.453 246.564 C 381.156 231.998, 384.484 200.385, 365.332 181.209 C 355.872 171.736, 341.717 167.377, 329.045 170.032 M 153.295 193.181 C 143.556 195.772, 145.878 211, 156.012 211 C 161.623 211, 166 207.066, 166 202.022 C 166 195.347, 160.234 191.335, 153.295 193.181 M 188.923 196.923 C 185.298 200.548, 185.196 203.891, 188.589 207.923 C 191.883 211.838, 197.524 212.201, 201.445 208.750 C 205.360 205.305, 205.749 201.043, 202.500 197.182 C 198.807 192.794, 193.160 192.686, 188.923 196.923 M 310.189 196.039 C 307.045 198.967, 307.180 205.270, 310.455 208.545 C 315.316 213.407, 323.751 211.112, 325.417 204.475 C 326.128 201.641, 324.543 197.135, 322.211 195.363 C 319.493 193.299, 312.722 193.679, 310.189 196.039 M 233.750 250.572 C 230.029 252.591, 230.228 255.552, 234.250 258.037 C 239.078 261.020, 245.064 260.382, 246.823 256.697 C 247.973 254.286, 247.936 253.551, 246.557 251.447 C 245.265 249.476, 244.132 249.008, 240.727 249.040 C 238.402 249.062, 235.262 249.751, 233.750 250.572 M 265.200 250.200 C 263.407 251.993, 263.752 256.466, 265.829 258.345 C 267.881 260.202, 273.145 260.528, 276.043 258.977 C 282.297 255.630, 278.776 249, 270.745 249 C 268.355 249, 265.860 249.540, 265.200 250.200 M 316.234 300.025 C 309.069 306.834, 294.278 314.606, 282.208 317.904 C 257.756 324.584, 231.986 322.089, 209.777 310.891 C 202.078 307.009, 193.320 301.106, 190.076 297.611 C 188.742 296.175, 187.217 295, 186.686 295 C 184.993 295, 186.658 326.483, 188.855 336 C 196.648 369.767, 213.701 392.885, 237.687 402.199 C 251.327 407.495, 264.338 406.798, 278.400 400.018 C 302.769 388.267, 321.040 356.440, 323.931 320.706 C 324.791 310.078, 324.294 293.967, 323.107 294.035 C 322.773 294.054, 319.680 296.750, 316.234 300.025 M 304.500 321.644 C 302.300 322.931, 296.788 325.398, 292.250 327.125 C 287.712 328.852, 284.005 330.768, 284.011 331.383 C 284.017 331.997, 286.709 334.163, 289.993 336.196 C 293.429 338.322, 297.328 341.826, 299.175 344.446 C 300.940 346.951, 302.735 349, 303.164 349 C 305.196 349, 311.066 321.565, 309.356 320.058 C 308.885 319.643, 306.700 320.356, 304.500 321.644 M 201 322.593 C 201 326.632, 204.951 345.029, 206.421 347.834 L 207.740 350.351 210.558 346.091 C 212.108 343.749, 216.217 339.805, 219.688 337.328 C 223.160 334.851, 226 332.221, 226 331.484 C 226 330.747, 223.637 329.247, 220.750 328.152 C 217.863 327.056, 212.472 324.774, 208.772 323.080 C 205.072 321.386, 201.809 320, 201.522 320 C 201.235 320, 201 321.167, 201 322.593 M 230.410 361.077 C 223.947 362.953, 220.026 368.947, 221.465 374.750 C 222.504 378.936, 231.839 387.344, 239.516 391.007 C 254.124 397.979, 270.781 394.981, 283.332 383.121 C 290.989 375.886, 292.069 369.869, 286.679 364.479 C 278.496 356.296, 263.730 360.539, 257.999 372.721 L 255.751 377.500 253.528 372.467 C 249.228 362.732, 240.138 358.254, 230.410 361.077" stroke="none" fill="black" fill-rule="evenodd"/>
</svg>